<svg xmlns="http://www.w3.org/2000/svg" width="49.74299" height="53.34489" viewBox="0 0 49.74299 53.34489" creator="Katerina Limpitsouni"><path d="M.22567,30.42556c.45104,7.33847,.90209,14.67694,1.35313,22.01541,.0262,.42631,.32352,.72055,.75,.75,3.68811,.25466,7.37704,.19328,11.05464-.18395,.37175-.03813,.79318-.3139,.75-.75-.76975-7.77319-1.39691-15.55949-1.88123-23.35567-.02369-.38142-.32503-.78158-.75-.75-3.5939,.26711-7.18781,.53421-10.78171,.80132-.9568,.07111-.96455,1.57169,0,1.5,3.5939-.26711,7.18781-.53421,10.78171-.80132l-.75-.75c.48432,7.79618,1.11148,15.58248,1.88123,23.35567l.75-.75c-3.67759,.37723-7.36653,.43862-11.05464,.18395l.75,.75c-.45104-7.33847-.90209-14.67694-1.35313-22.01541-.05894-.959-1.55935-.96569-1.5,0H.22567Z" fill="#01010C" origin="undraw"/><path d="M17.17336,18.31659c.45104,11.34505,.90209,22.6901,1.35313,34.03515,.01741,.43782,.33188,.70547,.75,.75,3.76395,.40085,7.51693,.2805,11.25402-.31118,.30397-.04813,.56985-.42338,.55062-.72321-.77136-12.02777-1.39823-24.06435-1.88123-36.10715-.01483-.36979-.33333-.79787-.75-.75-3.5939,.41294-7.18781,.82588-10.78171,1.23881-.94789,.10891-.95891,1.61018,0,1.5,3.5939-.41294,7.18781-.82588,10.78171-1.23881l-.75-.75c.483,12.0428,1.10987,24.07938,1.88123,36.10715l.55062-.72321c-3.59945,.56989-7.23273,.64339-10.85526,.2576l.75,.75c-.45104-11.34505-.90209-22.6901-1.35313-34.03515-.03825-.962-1.53844-.96691-1.5,0h0Z" fill="#01010C"/><path d="M35.83465,4.07185c.45104,16.05831,.90209,32.11661,1.35313,48.17492,.00834,.2971,.22473,.67408,.55062,.72321,3.84147,.57907,7.66241,.44703,11.4534-.40253,.30732-.06887,.56492-.40785,.55062-.72321-.77219-17.03023-1.39895-34.06682-1.88123-51.10772-.01492-.52708-.46492-.802-.94938-.72321-3.5939,.58449-7.18781,1.16898-10.78171,1.75347-.95038,.15456-.54711,1.60025,.39876,1.44642,3.5939-.58449,7.18781-1.16898,10.78171-1.75347l-.94938-.72321c.48227,17.0409,1.10903,34.07749,1.88123,51.10772l.55062-.72321c-3.51275,.78721-7.09389,.93947-10.65588,.40253l.55062,.72321c-.45104-16.05831-.90209-32.11661-1.35313-48.17492-.02706-.96325-1.52717-.96719-1.5,0h0Z" fill="#01010C"/></svg>