<svg xmlns="http://www.w3.org/2000/svg" width="52.08043" height="52.78091" viewBox="0 0 52.08043 52.78091" creator="Katerina Limpitsouni"><path d="M23.93316,46.01712c-6.09255,3.34685-12.68143,5.56915-19.7052,5.22835l.53033,1.28033c3.70258-3.32474,6.41306-7.12115,8.12257-11.80557,.14627-.40082-.16781-.79515-.52383-.92259C4.66157,37.04306,.29677,28.17148,1.71614,20.30391,3.25813,11.75658,10.35638,4.98679,18.51767,2.57839c9.14842-2.6997,19.34683-.31441,25.87421,6.75356,6.02758,6.52678,7.92939,15.92691,4.50225,24.18532-1.96446,4.73377-5.55647,8.60287-10.17126,10.84098-4.56204,2.21254-9.29973,2.39656-14.21179,1.58326-.94429-.15635-1.35038,1.28886-.39876,1.44642,4.72435,.78222,9.2304,.77767,13.75249-1.02556,4.41452-1.76034,8.15018-4.84243,10.66591-8.8806,5.10945-8.20154,4.63303-18.81197-.97747-26.62651C41.6059,2.57155,31.42223-1.27303,21.42646,.37418,12.20812,1.89327,3.73092,8.38886,.87719,17.44763c-2.92902,9.29776,1.6563,20.42284,11.08109,23.79643l-.52383-.92259c-1.61982,4.43862-4.23447,7.99872-7.73681,11.14366-.51065,.45854-.08129,1.25065,.53033,1.28033,7.27745,.35311,14.15066-1.96595,20.46228-5.43314,.84629-.4649,.09032-1.76071-.75708-1.29521Z" fill="#01010C" origin="undraw"/></svg>