<svg xmlns="http://www.w3.org/2000/svg" width="22.16293" height="46.95347" viewBox="0 0 22.16293 46.95347" creator="Katerina Limpitsouni"><path d="M1.40608,7.03411C3.22168,3.98756,6.43201,1.78334,10.0159,1.52856c3.46449-.2463,7.04571,1.38698,9.02904,4.26197,2.00962,2.9131,2.19127,6.99521,.37486,10.04773-1.77085,2.97596-5.11622,4.59539-6.77538,7.68422-1.85493,3.45329-1.76162,7.54136-1.61252,11.34421,.03772,.96207,1.53791,.96693,1.5,0-.15988-4.07756-.32832-8.71905,2.39317-12.07874,1.2991-1.60374,3.00687-2.81243,4.38943-4.33737,1.20177-1.32553,2.0906-2.86972,2.52464-4.61269C23.68465,6.42676,17.36824-.60602,9.82929,.04151,5.78031,.38928,2.17474,2.81391,.11087,6.27703c-.49537,.83121,.80093,1.58646,1.29521,.75708h0Z" fill="#01010C" origin="undraw"/><path d="M13.15022,45.4797l-.56034-.12494c-.09969-.03126-.19938-.03572-.29907-.0134-.09981,.00453-.19276,.03419-.27885,.089-.0874,.04713-.15754,.11152-.21043,.19317-.06629,.07244-.11104,.15746-.13424,.25506l-.02679,.19938c.00042,.13538,.03455,.26156,.1024,.37854l.11727,.15179c.09358,.09295,.2039,.15725,.33095,.19288l.56034,.12494c.09969,.03126,.19938,.03572,.29907,.0134,.09981-.00453,.19276-.03419,.27885-.089,.0874-.04713,.15754-.11152,.21043-.19317,.06629-.07244,.11104-.15746,.13424-.25506l.02679-.19938c-.00042-.13538-.03455-.26156-.1024-.37854l-.11727-.15179c-.09358-.09295-.2039-.15725-.33095-.19288h0Z" fill="#01010C"/></svg>